<svg width="23" height="24" viewBox="0 0 23 24" fill="none" xmlns="http://www.w3.org/2000/svg">
<g clip-path="url(#clip0_1642_7788)">
<path d="M15.7776 3.71704C15.7776 3.33663 15.9287 2.97181 16.1977 2.70282C16.4667 2.43383 16.8315 2.28271 17.2119 2.28271H20.0806C20.461 2.28271 20.8258 2.43383 21.0948 2.70282C21.3638 2.97181 21.5149 3.33663 21.5149 3.71704V20.929H22.2321C22.4223 20.929 22.6047 21.0045 22.7392 21.139C22.8737 21.2735 22.9492 21.4559 22.9492 21.6461C22.9492 21.8363 22.8737 22.0187 22.7392 22.1532C22.6047 22.2877 22.4223 22.3633 22.2321 22.3633H0.717163C0.52696 22.3633 0.344546 22.2877 0.210052 22.1532C0.0755581 22.0187 0 21.8363 0 21.6461C0 21.4559 0.0755581 21.2735 0.210052 21.139C0.344546 21.0045 0.52696 20.929 0.717163 20.929H1.43433V16.626C1.43433 16.2456 1.58544 15.8807 1.85443 15.6118C2.12342 15.3428 2.48825 15.1917 2.86865 15.1917H5.7373C6.11771 15.1917 6.48254 15.3428 6.75153 15.6118C7.02051 15.8807 7.17163 16.2456 7.17163 16.626V20.929H8.60596V10.8887C8.60596 10.5083 8.75707 10.1434 9.02606 9.87445C9.29505 9.60546 9.65988 9.45435 10.0403 9.45435H12.9089C13.2893 9.45435 13.6542 9.60546 13.9232 9.87445C14.1921 10.1434 14.3433 10.5083 14.3433 10.8887V20.929H15.7776V3.71704ZM17.2119 20.929H20.0806V3.71704H17.2119V20.929ZM12.9089 20.929V10.8887H10.0403V20.929H12.9089ZM5.7373 20.929V16.626H2.86865V20.929H5.7373Z" fill="#A5AAB5"/>
</g>
<defs>
<clipPath id="clip0_1642_7788">
<rect width="22.9492" height="22.9492" fill="white" transform="translate(0 0.848389)"/>
</clipPath>
</defs>
</svg>
