<svg width="20" height="20" viewBox="0 0 20 20" fill="none" xmlns="http://www.w3.org/2000/svg">
<path fill-rule="evenodd" clip-rule="evenodd" d="M16.7456 3.2547C16.0705 2.5798 15.155 2.20066 14.2004 2.20066C13.2458 2.20066 12.3303 2.5798 11.6552 3.2547L3.25522 11.6547C2.59929 12.3335 2.23622 13.2428 2.2442 14.1867C2.25218 15.1306 2.63057 16.0336 3.29788 16.7013C3.9652 17.3689 4.86803 17.7477 5.81194 17.7561C6.75585 17.7646 7.6653 17.4019 8.34442 16.7463H8.34562L8.94202 16.1463C9.11121 15.9817 9.33828 15.8902 9.57431 15.8914C9.81034 15.8926 10.0364 15.9865 10.2039 16.1529C10.3713 16.3192 10.4667 16.5447 10.4695 16.7807C10.4723 17.0168 10.3823 17.2444 10.2188 17.4147L9.62122 18.0159L9.61882 18.0183C8.60612 19.031 7.2326 19.5999 5.80042 19.5999C4.36825 19.5999 2.99473 19.031 1.98202 18.0183C0.969321 17.0056 0.400391 15.6321 0.400391 14.1999C0.400391 12.7677 0.969321 11.3942 1.98202 10.3815L10.382 1.9815C11.3941 0.968156 12.7673 0.398362 14.1994 0.397462C15.6316 0.396562 17.0055 0.964629 18.0188 1.97669C19.0322 2.98876 19.602 4.36192 19.6029 5.7941C19.6038 7.22628 19.0357 8.60016 18.0236 9.6135L13.8776 13.8771C13.5881 14.1824 13.2404 14.4266 12.8551 14.5953C12.4697 14.764 12.0544 14.8538 11.6337 14.8594C11.213 14.865 10.7955 14.7863 10.4057 14.6278C10.016 14.4694 9.66194 14.2345 9.36446 13.9371C9.06697 13.6396 8.83209 13.2855 8.67368 12.8958C8.51527 12.506 8.43653 12.0885 8.44212 11.6678C8.44771 11.2472 8.53751 10.8319 8.70622 10.4465C8.87493 10.0611 9.11914 9.71337 9.42442 9.4239L13.5644 5.28269C13.6474 5.1967 13.7467 5.12809 13.8565 5.08087C13.9662 5.03365 14.0843 5.00877 14.2038 5.00767C14.3233 5.00658 14.4419 5.02929 14.5525 5.07449C14.6631 5.1197 14.7636 5.18648 14.8482 5.27094C14.9327 5.3554 14.9996 5.45586 15.0449 5.56644C15.0902 5.67703 15.113 5.79553 15.112 5.91503C15.1111 6.03453 15.0863 6.15264 15.0392 6.26246C14.9921 6.37229 14.9235 6.47163 14.8376 6.5547L10.6976 10.6959C10.5719 10.8209 10.4721 10.9695 10.4039 11.1331C10.3356 11.2968 10.3003 11.4722 10.2998 11.6495C10.2994 11.8268 10.3338 12.0024 10.4013 12.1664C10.4687 12.3303 10.5678 12.4794 10.6928 12.6051C10.8179 12.7308 10.9664 12.8306 11.1301 12.8988C11.2937 12.9671 11.4691 13.0025 11.6464 13.0029C11.8237 13.0034 11.9994 12.9689 12.1633 12.9014C12.3273 12.834 12.4763 12.7349 12.602 12.6099L16.7468 8.34629C17.4217 7.6712 17.8009 6.75569 17.8009 5.8011C17.8009 4.8465 17.4217 3.93099 16.7468 3.2559" fill="#262626" fill-opacity="0.5"/>
</svg>
