<svg width="23" height="24" viewBox="0 0 23 24" fill="none" xmlns="http://www.w3.org/2000/svg">
<g clip-path="url(#clip0_1642_7771)">
<path d="M5.02014 0.949219C5.21035 0.949219 5.39276 1.02478 5.52725 1.15927C5.66175 1.29377 5.7373 1.47618 5.7373 1.66638V2.38354H17.2119V1.66638C17.2119 1.47618 17.2875 1.29377 17.422 1.15927C17.5565 1.02478 17.7389 0.949219 17.9291 0.949219C18.1193 0.949219 18.3017 1.02478 18.4362 1.15927C18.5707 1.29377 18.6462 1.47618 18.6462 1.66638V2.38354H20.0806C20.8414 2.38354 21.571 2.68578 22.109 3.22375C22.647 3.76173 22.9492 4.49138 22.9492 5.2522V21.0298C22.9492 21.7906 22.647 22.5203 22.109 23.0582C21.571 23.5962 20.8414 23.8984 20.0806 23.8984H2.86865C2.10784 23.8984 1.37819 23.5962 0.840209 23.0582C0.302232 22.5203 0 21.7906 0 21.0298V5.2522C0 4.49138 0.302232 3.76173 0.840209 3.22375C1.37819 2.68578 2.10784 2.38354 2.86865 2.38354H4.30298V1.66638C4.30298 1.47618 4.37854 1.29377 4.51303 1.15927C4.64752 1.02478 4.82994 0.949219 5.02014 0.949219V0.949219ZM2.86865 3.81787C2.48825 3.81787 2.12342 3.96899 1.85443 4.23798C1.58544 4.50696 1.43433 4.87179 1.43433 5.2522V21.0298C1.43433 21.4102 1.58544 21.775 1.85443 22.044C2.12342 22.313 2.48825 22.4641 2.86865 22.4641H20.0806C20.461 22.4641 20.8258 22.313 21.0948 22.044C21.3638 21.775 21.5149 21.4102 21.5149 21.0298V5.2522C21.5149 4.87179 21.3638 4.50696 21.0948 4.23798C20.8258 3.96899 20.461 3.81787 20.0806 3.81787H2.86865Z" fill="#A5AAB5"/>
<path d="M4.62692 20.7362C4.72068 20.8726 4.84786 20.9492 4.98047 20.9492L5.98047 20.9492C6.11308 20.9492 6.24025 20.8726 6.33402 20.7362C6.42779 20.5998 6.48047 20.4148 6.48047 20.2219L6.48047 5.67649C6.48047 5.48361 6.42779 5.29862 6.33402 5.16223C6.24025 5.02584 6.11308 4.94922 5.98047 4.94922L4.98047 4.94922C4.84786 4.94922 4.72068 5.02584 4.62692 5.16223C4.53315 5.29862 4.48047 5.48361 4.48047 5.67649L4.48047 20.2219C4.48047 20.4148 4.53315 20.5998 4.62692 20.7362Z" fill="#A5AAB5"/>
<path d="M10.6269 20.7362C10.7207 20.8726 10.8479 20.9492 10.9805 20.9492L11.9805 20.9492C12.1131 20.9492 12.2403 20.8726 12.334 20.7362C12.4278 20.5998 12.4805 20.4148 12.4805 20.2219L12.4805 5.67649C12.4805 5.48361 12.4278 5.29862 12.334 5.16223C12.2403 5.02584 12.1131 4.94922 11.9805 4.94922L10.9805 4.94922C10.8479 4.94922 10.7207 5.02584 10.6269 5.16223C10.5331 5.29862 10.4805 5.48361 10.4805 5.67649L10.4805 20.2219C10.4805 20.4148 10.5331 20.5998 10.6269 20.7362Z" fill="#A5AAB5"/>
<path d="M16.6269 20.7362C16.7207 20.8726 16.8479 20.9492 16.9805 20.9492L17.9805 20.9492C18.1131 20.9492 18.2403 20.8726 18.334 20.7362C18.4278 20.5998 18.4805 20.4148 18.4805 20.2219L18.4805 5.67649C18.4805 5.48361 18.4278 5.29862 18.334 5.16223C18.2403 5.02584 18.1131 4.94922 17.9805 4.94922L16.9805 4.94922C16.8479 4.94922 16.7207 5.02584 16.6269 5.16223C16.5331 5.29862 16.4805 5.48361 16.4805 5.67649L16.4805 20.2219C16.4805 20.4148 16.5331 20.5998 16.6269 20.7362Z" fill="#A5AAB5"/>
<path d="M3.48047 8.08203C3.48047 7.52975 3.92818 7.08203 4.48047 7.08203H6.48047C7.03275 7.08203 7.48047 7.52975 7.48047 8.08203V10.082C7.48047 10.6343 7.03275 11.082 6.48047 11.082H4.48047C3.92818 11.082 3.48047 10.6343 3.48047 10.082V8.08203Z" fill="#A5AAB5"/>
<rect x="15.4805" y="14.582" width="4" height="4" rx="1" fill="#A5AAB5"/>
<path d="M9.48047 11.582C9.48047 11.0297 9.92818 10.582 10.4805 10.582H12.4805C13.0328 10.582 13.4805 11.0297 13.4805 11.582V13.582C13.4805 14.1343 13.0328 14.582 12.4805 14.582H10.4805C9.92818 14.582 9.48047 14.1343 9.48047 13.582V11.582Z" fill="#A5AAB5"/>
</g>
<defs>
<clipPath id="clip0_1642_7771">
<rect width="22.9492" height="22.9492" fill="white" transform="translate(0 0.949219)"/>
</clipPath>
</defs>
</svg>
