<svg width="17" height="17" viewBox="0 0 17 17" fill="none" xmlns="http://www.w3.org/2000/svg">
<path d="M15.1092 2.93433H13.6018V3.86194H14.9932V14.0656H2.00671V3.86194H3.39812V2.93433H1.89076C1.78234 2.93614 1.67534 2.95929 1.57586 3.00246C1.47639 3.04563 1.3864 3.10798 1.31103 3.18594C1.23566 3.26389 1.17638 3.35593 1.13659 3.4568C1.09679 3.55767 1.07726 3.66539 1.0791 3.77381V14.1538C1.07726 14.2622 1.09679 14.3699 1.13659 14.4708C1.17638 14.5716 1.23566 14.6637 1.31103 14.7416C1.3864 14.8196 1.47639 14.8819 1.57586 14.9251C1.67534 14.9683 1.78234 14.9914 1.89076 14.9932H15.1092C15.2176 14.9914 15.3246 14.9683 15.4241 14.9251C15.5236 14.8819 15.6135 14.8196 15.6889 14.7416C15.7643 14.6637 15.8236 14.5716 15.8634 14.4708C15.9032 14.3699 15.9227 14.2622 15.9208 14.1538V3.77381C15.9227 3.66539 15.9032 3.55767 15.8634 3.4568C15.8236 3.35593 15.7643 3.26389 15.6889 3.18594C15.6135 3.10798 15.5236 3.04563 15.4241 3.00246C15.3246 2.95929 15.2176 2.93614 15.1092 2.93433Z" fill="#FCFCFC"/>
<path d="M3.86194 6.64478H4.78955V7.57238H3.86194V6.64478Z" fill="#FCFCFC"/>
<path d="M6.64478 6.64478H7.57238V7.57238H6.64478V6.64478Z" fill="#FCFCFC"/>
<path d="M9.42761 6.64478H10.3552V7.57238H9.42761V6.64478Z" fill="#FCFCFC"/>
<path d="M12.2104 6.64478H13.1381V7.57238H12.2104V6.64478Z" fill="#FCFCFC"/>
<path d="M3.86194 8.96375H4.78955V9.89135H3.86194V8.96375Z" fill="#FCFCFC"/>
<path d="M6.64478 8.96375H7.57238V9.89135H6.64478V8.96375Z" fill="#FCFCFC"/>
<path d="M9.42761 8.96375H10.3552V9.89135H9.42761V8.96375Z" fill="#FCFCFC"/>
<path d="M12.2104 8.96375H13.1381V9.89135H12.2104V8.96375Z" fill="#FCFCFC"/>
<path d="M3.86194 11.2828H4.78955V12.2104H3.86194V11.2828Z" fill="#FCFCFC"/>
<path d="M6.64478 11.2828H7.57238V12.2104H6.64478V11.2828Z" fill="#FCFCFC"/>
<path d="M9.42761 11.2828H10.3552V12.2104H9.42761V11.2828Z" fill="#FCFCFC"/>
<path d="M12.2104 11.2828H13.1381V12.2104H12.2104V11.2828Z" fill="#FCFCFC"/>
<path d="M4.78955 4.78954C4.91256 4.78954 5.03053 4.74067 5.11751 4.65369C5.20449 4.56671 5.25335 4.44874 5.25335 4.32573V1.54291C5.25335 1.4199 5.20449 1.30193 5.11751 1.21495C5.03053 1.12797 4.91256 1.0791 4.78955 1.0791C4.66654 1.0791 4.54857 1.12797 4.46159 1.21495C4.37461 1.30193 4.32574 1.4199 4.32574 1.54291V4.32573C4.32574 4.44874 4.37461 4.56671 4.46159 4.65369C4.54857 4.74067 4.66654 4.78954 4.78955 4.78954Z" fill="#FCFCFC"/>
<path d="M12.2104 4.78954C12.3334 4.78954 12.4514 4.74067 12.5383 4.65369C12.6253 4.56671 12.6742 4.44874 12.6742 4.32573V1.54291C12.6742 1.4199 12.6253 1.30193 12.5383 1.21495C12.4514 1.12797 12.3334 1.0791 12.2104 1.0791C12.0874 1.0791 11.9694 1.12797 11.8824 1.21495C11.7954 1.30193 11.7466 1.4199 11.7466 1.54291V4.32573C11.7466 4.44874 11.7954 4.56671 11.8824 4.65369C11.9694 4.74067 12.0874 4.78954 12.2104 4.78954Z" fill="#FCFCFC"/>
<path d="M6.18097 2.93433H10.819V3.86194H6.18097V2.93433Z" fill="#FCFCFC"/>
</svg>
