<svg width="23" height="23" viewBox="0 0 23 23" fill="none" xmlns="http://www.w3.org/2000/svg">
<path d="M6.28259 12.6661V17.0139C6.28259 17.2445 6.37421 17.4657 6.53728 17.6288C6.70036 17.7918 6.92153 17.8834 7.15216 17.8834H17.6323L21.9348 21.3617V7.44867C21.9348 7.21804 21.8432 6.99687 21.6801 6.83379C21.517 6.67072 21.2958 6.5791 21.0652 6.5791H16.7174" stroke="#AA8349" stroke-width="1.5" stroke-linecap="round" stroke-linejoin="round"/>
<path d="M5.36768 12.6657L1.06519 16.1439V2.23089C1.06519 2.00027 1.1568 1.77909 1.31988 1.61602C1.48295 1.45294 1.70413 1.36133 1.93475 1.36133H15.8478C16.0784 1.36133 16.2996 1.45294 16.4627 1.61602C16.6257 1.77909 16.7174 2.00027 16.7174 2.23089V11.7961C16.7174 12.0267 16.6257 12.2479 16.4627 12.411C16.2996 12.5741 16.0784 12.6657 15.8478 12.6657H5.36768Z" stroke="#9CA4AC" stroke-width="1.5" stroke-linecap="round" stroke-linejoin="round"/>
</svg>
