<svg width="10" height="10" viewBox="0 0 10 10" fill="none" xmlns="http://www.w3.org/2000/svg">
<path fill-rule="evenodd" clip-rule="evenodd" d="M5.3 4.7515L7.2455 6.697L6.8215 7.1215L4.7 5V2H5.3V4.7515ZM5 10C2.2385 10 0 7.7615 0 5C0 2.2385 2.2385 0 5 0C7.7615 0 10 2.2385 10 5C10 7.7615 7.7615 10 5 10ZM5 9.4C6.16695 9.4 7.28611 8.93643 8.11127 8.11127C8.93643 7.28611 9.4 6.16695 9.4 5C9.4 3.83305 8.93643 2.71389 8.11127 1.88873C7.28611 1.06357 6.16695 0.6 5 0.6C3.83305 0.6 2.71389 1.06357 1.88873 1.88873C1.06357 2.71389 0.6 3.83305 0.6 5C0.6 6.16695 1.06357 7.28611 1.88873 8.11127C2.71389 8.93643 3.83305 9.4 5 9.4Z" fill="#9E9E9E"/>
</svg>
