<svg width="16" height="16" viewBox="0 0 16 16" fill="none" xmlns="http://www.w3.org/2000/svg">
<path d="M16 1.99967C16 2.36634 15.7 2.66634 15.3333 2.66634H0.666667C0.3 2.66634 0 2.36634 0 1.99967C0 1.63301 0.3 1.33301 0.666667 1.33301H15.3333C15.7 1.33301 16 1.63301 16 1.99967ZM10 13.333H6C5.63333 13.333 5.33333 13.633 5.33333 13.9997C5.33333 14.3663 5.63333 14.6663 6 14.6663H10C10.3667 14.6663 10.6667 14.3663 10.6667 13.9997C10.6667 13.633 10.3667 13.333 10 13.333ZM12.6667 7.33301H3.33333C2.96667 7.33301 2.66667 7.63301 2.66667 7.99967C2.66667 8.36634 2.96667 8.66634 3.33333 8.66634H12.6667C13.0333 8.66634 13.3333 8.36634 13.3333 7.99967C13.3333 7.63301 13.0333 7.33301 12.6667 7.33301Z" fill="#707070"/>
</svg>
