<svg width="16" height="8" viewBox="0 0 16 8" fill="none" xmlns="http://www.w3.org/2000/svg">
<path d="M15.1163 5.60151C15.1723 5.69867 15.1873 5.81407 15.1582 5.92233C15.129 6.03059 15.0581 6.12283 14.9609 6.17878C14.8638 6.23472 14.7484 6.24978 14.6401 6.22064C14.5319 6.1915 14.4396 6.12054 14.3837 6.02339L12.9774 3.55682C12.1458 4.13979 11.2174 4.57046 10.2352 4.82878L10.6691 7.43034C10.6782 7.48501 10.6765 7.54094 10.6641 7.59495C10.6516 7.64896 10.6286 7.69998 10.5964 7.7451C10.5642 7.79022 10.5234 7.82855 10.4764 7.85791C10.4294 7.88727 10.3771 7.90708 10.3224 7.9162C10.2991 7.91975 10.2756 7.92163 10.2521 7.92182C10.1525 7.92172 10.0561 7.88637 9.98004 7.82202C9.90399 7.75768 9.85316 7.66849 9.83655 7.57026L9.40624 4.99964C8.47445 5.14599 7.52553 5.14599 6.59374 4.99964L6.16624 7.57026C6.14962 7.66861 6.09868 7.75789 6.02248 7.82225C5.94628 7.88661 5.84973 7.92189 5.74999 7.92182C5.72645 7.92163 5.70295 7.91975 5.67968 7.9162C5.625 7.907 5.57267 7.88711 5.52568 7.85767C5.4787 7.82823 5.43798 7.78982 5.40585 7.74463C5.37372 7.69944 5.35081 7.64836 5.33844 7.59431C5.32607 7.54026 5.32447 7.4843 5.33374 7.42964L5.76757 4.82807C4.78542 4.56975 3.85694 4.13908 3.02538 3.55612L1.61632 6.02339C1.56037 6.12054 1.46813 6.1915 1.35987 6.22064C1.25161 6.24978 1.13621 6.23472 1.03905 6.17878C0.941896 6.12283 0.870943 6.03059 0.841802 5.92233C0.81266 5.81407 0.827718 5.69867 0.883662 5.60151L2.34968 3.03651C1.82813 2.59642 1.34993 2.10739 0.921631 1.57612C0.851328 1.48903 0.818499 1.37759 0.830366 1.2663C0.842234 1.155 0.897826 1.05299 0.984912 0.982683C1.072 0.91238 1.18345 0.879551 1.29474 0.891419C1.40603 0.903286 1.50805 0.958878 1.57835 1.04596C2.76452 2.5155 4.84085 4.26557 7.99999 4.26557C11.1591 4.26557 13.2355 2.5155 14.4216 1.04737C14.4919 0.960284 14.594 0.904693 14.7052 0.892825C14.8165 0.880958 14.928 0.913786 15.0151 0.984089C15.1022 1.05439 15.1577 1.15641 15.1696 1.2677C15.1815 1.37899 15.1487 1.49044 15.0783 1.57753C14.65 2.1088 14.1719 2.59783 13.6503 3.03792L15.1163 5.60151Z" fill="#8B8A8D"/>
</svg>
