<svg width="28" height="22" viewBox="0 0 28 22" fill="none" xmlns="http://www.w3.org/2000/svg">
<path d="M23 21V9.91134C23 9.78831 22.9762 9.66664 22.9301 9.55412C22.8839 9.4416 22.8165 9.34073 22.7322 9.25797L14.5498 1.22965C14.3992 1.08187 14.203 0.999993 13.9994 1C13.7959 1.00001 13.5996 1.0819 13.449 1.22969L5.26776 9.25797C5.18342 9.34074 5.11604 9.4416 5.06993 9.55411C5.02382 9.66662 5 9.78828 5 9.91131V21" fill="#3A7D44"/>
<path d="M23 21V9.91134C23 9.78831 22.9762 9.66664 22.9301 9.55412C22.8839 9.4416 22.8165 9.34073 22.7322 9.25797L14.5498 1.22965C14.3992 1.08187 14.203 0.999993 13.9994 1C13.7959 1.00001 13.5996 1.0819 13.449 1.22969L5.26776 9.25797C5.18342 9.34074 5.11604 9.4416 5.06993 9.55411C5.02382 9.66662 5 9.78828 5 9.91131V21" stroke="#3A7D44" stroke-width="1.5" stroke-linecap="round" stroke-linejoin="round"/>
<path d="M16.6483 20.9987V13.9346H11.3502V20.9987" fill="white"/>
<path d="M16.6483 20.9987V13.9346H11.3502V20.9987" stroke="white" stroke-width="1.5" stroke-linecap="round" stroke-linejoin="round"/>
<path d="M1.6377 21H26.3623" stroke="#3A7D44" stroke-width="1.5" stroke-linecap="round" stroke-linejoin="round"/>
</svg>
