<svg width="23" height="24" viewBox="0 0 23 24" fill="none" xmlns="http://www.w3.org/2000/svg">
<g clip-path="url(#clip0_1642_7799)">
<path fill-rule="evenodd" clip-rule="evenodd" d="M14.3433 18.6759C14.3433 18.8661 14.2677 19.0485 14.1332 19.183C13.9987 19.3175 13.8163 19.3931 13.6261 19.3931H2.15149C1.96129 19.3931 1.77887 19.3175 1.64438 19.183C1.50988 19.0485 1.43433 18.8661 1.43433 18.6759V5.76697C1.43433 5.57676 1.50988 5.39435 1.64438 5.25986C1.77887 5.12536 1.96129 5.0498 2.15149 5.0498H13.6261C13.8163 5.0498 13.9987 5.12536 14.1332 5.25986C14.2677 5.39435 14.3433 5.57676 14.3433 5.76697V8.63562C14.3433 8.82582 14.4188 9.00824 14.5533 9.14273C14.6878 9.27723 14.8702 9.35278 15.0604 9.35278C15.2506 9.35278 15.433 9.27723 15.5675 9.14273C15.702 9.00824 15.7776 8.82582 15.7776 8.63562V5.76697C15.7776 5.19636 15.5509 4.64912 15.1474 4.24564C14.7439 3.84215 14.1967 3.61548 13.6261 3.61548H2.15149C1.58088 3.61548 1.03364 3.84215 0.630157 4.24564C0.226674 4.64912 0 5.19636 0 5.76697L0 18.6759C0 19.2465 0.226674 19.7938 0.630157 20.1972C1.03364 20.6007 1.58088 20.8274 2.15149 20.8274H13.6261C14.1967 20.8274 14.7439 20.6007 15.1474 20.1972C15.5509 19.7938 15.7776 19.2465 15.7776 18.6759V15.8073C15.7776 15.617 15.702 15.4346 15.5675 15.3001C15.433 15.1656 15.2506 15.0901 15.0604 15.0901C14.8702 15.0901 14.6878 15.1656 14.5533 15.3001C14.4188 15.4346 14.3433 15.617 14.3433 15.8073V18.6759Z" fill="#A5AAB5"/>
<path fill-rule="evenodd" clip-rule="evenodd" d="M22.7398 12.7292C22.8066 12.6626 22.8596 12.5835 22.8957 12.4964C22.9319 12.4092 22.9505 12.3158 22.9505 12.2215C22.9505 12.1272 22.9319 12.0338 22.8957 11.9466C22.8596 11.8595 22.8066 11.7804 22.7398 11.7137L18.4368 7.41076C18.3022 7.27609 18.1195 7.20044 17.9291 7.20044C17.7386 7.20044 17.556 7.27609 17.4213 7.41076C17.2867 7.54542 17.211 7.72807 17.211 7.91851C17.211 8.10895 17.2867 8.2916 17.4213 8.42626L20.5008 11.5043H7.88879C7.69859 11.5043 7.51618 11.5799 7.38168 11.7144C7.24719 11.8489 7.17163 12.0313 7.17163 12.2215C7.17163 12.4117 7.24719 12.5941 7.38168 12.7286C7.51618 12.8631 7.69859 12.9387 7.88879 12.9387H20.5008L17.4213 16.0167C17.2867 16.1514 17.211 16.334 17.211 16.5245C17.211 16.7149 17.2867 16.8976 17.4213 17.0322C17.556 17.1669 17.7386 17.2425 17.9291 17.2425C18.1195 17.2425 18.3022 17.1669 18.4368 17.0322L22.7398 12.7292Z" fill="#A5AAB5"/>
</g>
<defs>
<clipPath id="clip0_1642_7799">
<rect width="22.9492" height="22.9492" fill="white" transform="translate(0 0.746826)"/>
</clipPath>
</defs>
</svg>
