<svg width="17" height="16" viewBox="0 0 17 16" fill="none" xmlns="http://www.w3.org/2000/svg">
<path d="M6.70833 6.49984C5.8375 6.49984 5.09201 6.18977 4.47187 5.56963C3.85174 4.94949 3.54167 4.204 3.54167 3.33317C3.54167 2.46234 3.85174 1.71685 4.47187 1.09671C5.09201 0.476573 5.8375 0.166504 6.70833 0.166504C7.57917 0.166504 8.32465 0.476573 8.94479 1.09671C9.56493 1.71685 9.875 2.46234 9.875 3.33317C9.875 4.204 9.56493 4.94949 8.94479 5.56963C8.32465 6.18977 7.57917 6.49984 6.70833 6.49984ZM15.4958 15.604L12.9625 13.0707C12.6854 13.229 12.3885 13.3609 12.0719 13.4665C11.7552 13.5721 11.4187 13.6248 11.0625 13.6248C10.0729 13.6248 9.2319 13.2786 8.53946 12.5862C7.84701 11.8937 7.50053 11.0524 7.5 10.0623C7.49947 9.07223 7.84596 8.23121 8.53946 7.5393C9.23296 6.84738 10.074 6.50089 11.0625 6.49984C12.051 6.49878 12.8923 6.84527 13.5863 7.5393C14.2804 8.23332 14.6266 9.07434 14.625 10.0623C14.625 10.4186 14.5722 10.755 14.4667 11.0717C14.3611 11.3884 14.2292 11.6853 14.0708 11.9623L16.6042 14.4957L15.4958 15.604ZM11.0625 12.0415C11.6167 12.0415 12.0851 11.8502 12.4677 11.4675C12.8503 11.0849 13.0417 10.6165 13.0417 10.0623C13.0417 9.50817 12.8503 9.03977 12.4677 8.65713C12.0851 8.27449 11.6167 8.08317 11.0625 8.08317C10.5083 8.08317 10.0399 8.27449 9.65729 8.65713C9.27465 9.03977 9.08333 9.50817 9.08333 10.0623C9.08333 10.6165 9.27465 11.0849 9.65729 11.4675C10.0399 11.8502 10.5083 12.0415 11.0625 12.0415ZM6.72812 7.2915C6.17396 8.10956 5.89687 9.03317 5.89687 10.0623C5.89687 11.0915 6.17396 12.0151 6.72812 12.8332H0.375V10.6363C0.375 10.1877 0.487153 9.77206 0.711458 9.38942C0.935764 9.00678 1.24583 8.7165 1.64167 8.51859C2.31458 8.17553 3.07326 7.88525 3.91771 7.64775C4.76215 7.41025 5.69896 7.2915 6.72812 7.2915Z" fill="#FCFCFC"/>
</svg>
