<svg width="34" height="34" viewBox="0 0 34 34" fill="none" xmlns="http://www.w3.org/2000/svg">
<circle cx="17" cy="17" r="16.5" stroke="#3A7D44"/>
<path d="M24 22V16.8C23.5 16.9 23 17 22.5 17H22V23H12V16C12 13.2 14.2 11 17 11C17.1 9.7 17.7 8.6 18.5 7.7C18.2 7.3 17.6 7 17 7C15.9 7 15 7.9 15 9V9.3C12 10.2 10 12.9 10 16V22L8 24V25H26V24L24 22ZM15 26C15 27.1 15.9 28 17 28C18.1 28 19 27.1 19 26H15ZM26 11.5C26 13.4 24.4 15 22.5 15C20.6 15 19 13.4 19 11.5C19 9.6 20.6 8 22.5 8C24.4 8 26 9.6 26 11.5Z" fill="#3A7D44"/>
</svg>
