<svg width="40" height="40" viewBox="0 0 40 40" fill="none" xmlns="http://www.w3.org/2000/svg">
<rect x="0.25" y="0.25" width="39.5" height="39.5" rx="9.75" fill="white" stroke="#9CA4AC" stroke-width="0.5"/>
<path d="M17.5 27H22.1667" stroke="#AA8349" stroke-width="1.2" stroke-linecap="round" stroke-linejoin="round"/>
<path d="M15.0395 18.25C15.0386 17.5581 15.1661 16.873 15.4147 16.2339C15.6634 15.5949 16.0282 15.0146 16.4881 14.5266C16.9481 14.0386 17.4941 13.6525 18.0947 13.3905C18.6953 13.1285 19.3386 12.9958 19.9875 13.0001C22.6952 13.0216 24.8611 15.421 24.8611 18.3159V18.8333C24.8611 21.4449 25.3736 22.9603 25.825 23.7886C25.8736 23.8771 25.8995 23.9777 25.9 24.0803C25.9005 24.1828 25.8756 24.2837 25.8279 24.3728C25.7802 24.4618 25.7113 24.5359 25.6281 24.5875C25.545 24.6391 25.4505 24.6664 25.3543 24.6667H14.5457C14.4495 24.6664 14.355 24.6391 14.2719 24.5875C14.1887 24.5359 14.1198 24.4618 14.0721 24.3727C14.0243 24.2837 13.9995 24.1827 14 24.0802C14.0005 23.9776 14.0264 23.877 14.0751 23.7885C14.5267 22.9602 15.0395 21.4447 15.0395 18.8333L15.0395 18.25Z" stroke="#3A7D44" stroke-width="1.2" stroke-linecap="round" stroke-linejoin="round"/>
</svg>
