<svg width="18" height="19" viewBox="0 0 18 19" fill="none" xmlns="http://www.w3.org/2000/svg">
<path d="M2.73002 4.20502V6.28002H3.32502V3.52502H2.85002L2.02502 4.08002L2.26002 4.50002L2.73002 4.20502Z" fill="#FCFCFC"/>
<path d="M2.78499 7.90998C2.83651 7.90518 2.88847 7.91096 2.93768 7.92695C2.9869 7.94295 3.03232 7.96883 3.07118 8.003C3.11004 8.03718 3.14151 8.07893 3.16365 8.1257C3.1858 8.17246 3.19817 8.22326 3.19999 8.27498C3.19999 8.46498 3.09499 8.64498 2.76499 8.90998L1.76499 9.69498V10.195H3.83499V9.63998H2.66499L3.16499 9.25498C3.66499 8.90498 3.80499 8.61998 3.80499 8.25498C3.80076 8.13029 3.77108 8.00778 3.71777 7.89499C3.66446 7.78219 3.58864 7.68149 3.49498 7.59907C3.40133 7.51665 3.2918 7.45425 3.17314 7.41572C3.05448 7.37718 2.9292 7.36332 2.80499 7.37498C2.59661 7.37377 2.39092 7.4221 2.20489 7.51599C2.01885 7.60987 1.85779 7.74663 1.73499 7.91498L2.11499 8.27998C2.19133 8.17157 2.29132 8.08193 2.40738 8.01784C2.52345 7.95374 2.65257 7.91686 2.78499 7.90998Z" fill="#FCFCFC"/>
<path d="M3.27998 12.82C3.42192 12.7845 3.54804 12.7029 3.63855 12.588C3.72905 12.4731 3.7788 12.3313 3.77998 12.185C3.77998 11.75 3.38998 11.43 2.77998 11.43C2.57822 11.4265 2.3784 11.4698 2.19621 11.5566C2.01402 11.6433 1.85443 11.7712 1.72998 11.93L2.07498 12.29C2.15483 12.1941 2.25397 12.116 2.36595 12.0609C2.47793 12.0057 2.60026 11.9748 2.72498 11.97C2.99498 11.97 3.18498 12.1 3.18498 12.3C3.18498 12.5 3.00498 12.61 2.68498 12.61H2.39498V13.11H2.71498C3.08498 13.11 3.24998 13.215 3.24998 13.425C3.24998 13.635 3.07498 13.765 2.74998 13.765C2.6125 13.7639 2.47671 13.7345 2.35111 13.6786C2.22551 13.6227 2.11278 13.5415 2.01998 13.44L1.66998 13.83C1.80933 13.9831 1.98037 14.1041 2.1712 14.1844C2.36204 14.2647 2.56808 14.3024 2.77498 14.295C3.41998 14.295 3.83998 13.95 3.83998 13.475C3.83959 13.3171 3.78303 13.1645 3.68044 13.0445C3.57784 12.9245 3.43589 12.8449 3.27998 12.82Z" fill="#FCFCFC"/>
<path d="M16.21 5C16.21 4.86739 16.1573 4.74021 16.0636 4.64645C15.9698 4.55268 15.8426 4.5 15.71 4.5H5V5.5H15.71C15.8426 5.5 15.9698 5.44732 16.0636 5.35355C16.1573 5.25979 16.21 5.13261 16.21 5Z" fill="#FCFCFC"/>
<path d="M15.71 8.5H5V9.5H15.71C15.8426 9.5 15.9698 9.44732 16.0636 9.35355C16.1573 9.25979 16.21 9.13261 16.21 9C16.21 8.86739 16.1573 8.74021 16.0636 8.64645C15.9698 8.55268 15.8426 8.5 15.71 8.5Z" fill="#FCFCFC"/>
<path d="M15.71 12.5H5V13.5H15.71C15.8426 13.5 15.9698 13.4473 16.0636 13.3536C16.1573 13.2598 16.21 13.1326 16.21 13C16.21 12.8674 16.1573 12.7402 16.0636 12.6464C15.9698 12.5527 15.8426 12.5 15.71 12.5Z" fill="#FCFCFC"/>
</svg>
