<svg width="23" height="23" viewBox="0 0 23 23" fill="none" xmlns="http://www.w3.org/2000/svg">
<g clip-path="url(#clip0_1642_7766)">
<path d="M21.5149 20.0806C21.5149 20.0806 22.9492 20.0806 22.9492 18.6462C22.9492 17.2119 21.5149 12.9089 15.7776 12.9089C10.0403 12.9089 8.60596 17.2119 8.60596 18.6462C8.60596 20.0806 10.0403 20.0806 10.0403 20.0806H21.5149ZM10.0718 18.6462C10.0612 18.6448 10.0507 18.6429 10.0403 18.6405C10.0417 18.2618 10.2798 17.1631 11.1304 16.1735C11.9221 15.2455 13.3134 14.3433 15.7776 14.3433C18.2403 14.3433 19.6316 15.2469 20.4248 16.1735C21.2754 17.1631 21.512 18.2633 21.5149 18.6405L21.5034 18.6434C21.4967 18.6445 21.4901 18.6455 21.4833 18.6462H10.0718ZM15.7776 10.0403C16.5384 10.0403 17.2681 9.73805 17.806 9.20007C18.344 8.6621 18.6462 7.93244 18.6462 7.17163C18.6462 6.41082 18.344 5.68116 17.806 5.14319C17.2681 4.60521 16.5384 4.30298 15.7776 4.30298C15.0168 4.30298 14.2871 4.60521 13.7491 5.14319C13.2112 5.68116 12.9089 6.41082 12.9089 7.17163C12.9089 7.93244 13.2112 8.6621 13.7491 9.20007C14.2871 9.73805 15.0168 10.0403 15.7776 10.0403ZM20.0806 7.17163C20.0806 7.73671 19.9693 8.29625 19.753 8.81831C19.5368 9.34037 19.2198 9.81473 18.8203 10.2143C18.4207 10.6139 17.9463 10.9308 17.4243 11.1471C16.9022 11.3633 16.3427 11.4746 15.7776 11.4746C15.2125 11.4746 14.653 11.3633 14.1309 11.1471C13.6088 10.9308 13.1345 10.6139 12.7349 10.2143C12.3354 9.81473 12.0184 9.34037 11.8022 8.81831C11.5859 8.29625 11.4746 7.73671 11.4746 7.17163C11.4746 6.03041 11.928 4.93593 12.7349 4.12897C13.5419 3.322 14.6364 2.86865 15.7776 2.86865C16.9188 2.86865 18.0133 3.322 18.8203 4.12897C19.6272 4.93593 20.0806 6.03041 20.0806 7.17163ZM9.94849 13.3105C9.37473 13.1299 8.78329 13.0111 8.18427 12.9563C7.84767 12.9243 7.50974 12.9085 7.17163 12.9089C1.43433 12.9089 0 17.2119 0 18.6462C0 19.6029 0.477631 20.0806 1.43433 20.0806H7.48145C7.26881 19.6328 7.16277 19.1419 7.17163 18.6462C7.17163 17.1976 7.71237 15.7173 8.73505 14.481C9.08359 14.0593 9.4895 13.6648 9.94849 13.3105ZM7.05688 14.3433C6.20798 15.6188 5.74941 17.1141 5.7373 18.6462H1.43433C1.43433 18.2733 1.66956 17.1689 2.52441 16.1735C3.30612 15.2612 4.66443 14.3719 7.05688 14.3447V14.3433ZM2.15149 7.88879C2.15149 6.74757 2.60484 5.65309 3.4118 4.84613C4.21877 4.03916 5.31325 3.58582 6.45447 3.58582C7.59569 3.58582 8.69017 4.03916 9.49713 4.84613C10.3041 5.65309 10.7574 6.74757 10.7574 7.88879C10.7574 9.03001 10.3041 10.1245 9.49713 10.9315C8.69017 11.7384 7.59569 12.1918 6.45447 12.1918C5.31325 12.1918 4.21877 11.7384 3.4118 10.9315C2.60484 10.1245 2.15149 9.03001 2.15149 7.88879ZM6.45447 5.02014C5.69365 5.02014 4.964 5.32237 4.42602 5.86035C3.88805 6.39833 3.58582 7.12798 3.58582 7.88879C3.58582 8.64961 3.88805 9.37926 4.42602 9.91724C4.964 10.4552 5.69365 10.7574 6.45447 10.7574C7.21528 10.7574 7.94493 10.4552 8.48291 9.91724C9.02089 9.37926 9.32312 8.64961 9.32312 7.88879C9.32312 7.12798 9.02089 6.39833 8.48291 5.86035C7.94493 5.32237 7.21528 5.02014 6.45447 5.02014Z" fill="#A5AAB5"/>
</g>
<defs>
<clipPath id="clip0_1642_7766">
<rect width="22.9492" height="22.9492" fill="white"/>
</clipPath>
</defs>
</svg>
