<svg width="16" height="17" viewBox="0 0 16 17" fill="none" xmlns="http://www.w3.org/2000/svg">
<path d="M5 12.5H6V15.5H5V12.5Z" fill="#FCFCFC"/>
<path d="M10.5 10.5H3.5C3.1023 10.4996 2.721 10.3414 2.43978 10.0602C2.15856 9.779 2.0004 9.3977 2 9V3.5H1V9C1.00079 9.6628 1.26444 10.2982 1.73311 10.7669C2.20178 11.2356 2.8372 11.4992 3.5 11.5H10.5C10.8644 11.5009 11.2239 11.5831 11.5525 11.7405L8.5 14.793L9.207 15.5L12.3605 12.3465C12.7701 12.8 12.9978 13.3889 13 14V15.5H14V14C13.9987 13.0721 13.6295 12.1827 12.9734 11.5266C12.3173 10.8705 11.4279 10.5013 10.5 10.5Z" fill="#FCFCFC"/>
<path d="M12.6374 2.51952L9.13744 1.51952C9.04758 1.49382 8.95231 1.49382 8.86244 1.51952L5.36244 2.51952C5.23786 2.55521 5.13201 2.63786 5.06718 2.75007C5.00236 2.86228 4.98363 2.99527 5.01494 3.12102L5.49994 5.06152V6.00002C5.49994 6.45965 5.59047 6.91477 5.76636 7.33941C5.94226 7.76405 6.20006 8.14989 6.52507 8.4749C6.85007 8.7999 7.23591 9.05771 7.66055 9.2336C8.08519 9.40949 8.54032 9.50002 8.99994 9.50002C9.45957 9.50002 9.91469 9.40949 10.3393 9.2336C10.764 9.05771 11.1498 8.7999 11.4748 8.4749C11.7998 8.14989 12.0576 7.76405 12.2335 7.33941C12.4094 6.91477 12.4999 6.45965 12.4999 6.00002V5.06152L12.9849 3.12152C13.0164 2.9957 12.9977 2.86258 12.9329 2.75026C12.8681 2.63794 12.7621 2.5552 12.6374 2.51952ZM8.99994 2.52002L11.8974 3.34802L11.6099 4.50002H9.49994V3.50002H8.49994V4.50002H6.39044L6.10244 3.34802L8.99994 2.52002ZM8.99994 8.50002C8.33715 8.49923 7.70172 8.23558 7.23305 7.76691C6.76438 7.29824 6.50074 6.66282 6.49994 6.00002V5.50002H11.4999V6.00002C11.4991 6.66282 11.2355 7.29824 10.7668 7.76691C10.2982 8.23558 9.66274 8.49923 8.99994 8.50002Z" fill="#FCFCFC"/>
</svg>
