<svg width="19" height="23" viewBox="0 0 19 23" fill="none" xmlns="http://www.w3.org/2000/svg">
<circle cx="9.50456" cy="6.33256" r="4.97123" stroke="#9CA4AC" stroke-width="1.5" stroke-linecap="round" stroke-linejoin="round"/>
<path fill-rule="evenodd" clip-rule="evenodd" d="M1.61916 18.218C1.61782 17.8686 1.69598 17.5234 1.84772 17.2086C2.32389 16.2562 3.6667 15.7515 4.78094 15.5229C5.58453 15.3514 6.39922 15.2369 7.21894 15.1801C8.73659 15.0467 10.263 15.0467 11.7807 15.1801C12.6003 15.2375 13.415 15.3521 14.2187 15.5229C15.3329 15.7515 16.6757 16.2086 17.1519 17.2086C17.457 17.8503 17.457 18.5953 17.1519 19.237C16.6757 20.237 15.3329 20.6941 14.2187 20.9132C13.416 21.0918 12.601 21.2096 11.7807 21.2655C10.5454 21.3703 9.30441 21.3893 8.06652 21.3227C7.78082 21.3227 7.50464 21.3227 7.21894 21.2655C6.40164 21.2102 5.58977 21.0924 4.79046 20.9132C3.6667 20.6941 2.33342 20.237 1.84772 19.237C1.69676 18.9186 1.61867 18.5705 1.61916 18.218Z" stroke="#AA8349" stroke-width="1.5" stroke-linecap="round" stroke-linejoin="round"/>
</svg>
