<svg width="40" height="40" viewBox="0 0 40 40" fill="none" xmlns="http://www.w3.org/2000/svg">
<rect x="0.25" y="0.25" width="39.5" height="39.5" rx="9.75" fill="white" stroke="#9CA4AC" stroke-width="0.5"/>
<path d="M12 28.0003C12.6415 26.89 13.5639 25.968 14.6745 25.327C15.7851 24.6861 17.0448 24.3486 18.3271 24.3486C19.6094 24.3486 20.8692 24.6861 21.9798 25.3271C23.0904 25.9681 24.0127 26.8901 24.6542 28.0005" stroke="#3A7D44" stroke-width="1.2" stroke-linecap="round" stroke-linejoin="round"/>
<path d="M22.2433 21.6208C21.9643 22.3742 21.4737 23.0309 20.8304 23.5122C20.1872 23.9935 19.4187 24.2788 18.6173 24.334C17.8158 24.3891 17.0155 24.2116 16.3124 23.8229C15.6094 23.4342 15.0335 22.8507 14.654 22.1427C14.2745 21.4346 14.1075 20.6321 14.1731 19.8314C14.2387 19.0307 14.534 18.266 15.0237 17.6291C15.5133 16.9922 16.1764 16.5103 16.9333 16.2411C17.6902 15.972 18.5088 15.9271 19.2906 16.1118" stroke="#3A7D44" stroke-width="1.2" stroke-linecap="round" stroke-linejoin="round"/>
<path d="M23.1695 19H21.3099C21.2277 19 21.1489 18.9673 21.0908 18.9092C21.0327 18.8511 21 18.7723 21 18.6901V16.9589C21 16.9182 21.008 16.8779 21.0236 16.8403C21.0392 16.8027 21.062 16.7685 21.0908 16.7397L25.7397 12.0908C25.7978 12.0327 25.8767 12 25.9589 12C26.0411 12 26.1199 12.0327 26.178 12.0908L27.9092 13.822C27.9673 13.8801 28 13.9589 28 14.0411C28 14.1233 27.9673 14.2022 27.9092 14.2603L23.1695 19Z" stroke="#AA8349" stroke-width="1.2" stroke-linecap="round" stroke-linejoin="round"/>
<path d="M24.7195 13.1113L26.889 15.2808" stroke="#AA8349" stroke-width="1.2" stroke-linecap="round" stroke-linejoin="round"/>
</svg>
