<svg width="18" height="22" viewBox="0 0 18 22" fill="none" xmlns="http://www.w3.org/2000/svg">
<path d="M13 2.59961H16.2C16.4122 2.59961 16.6157 2.6839 16.7657 2.83392C16.9157 2.98395 17 3.18744 17 3.39961V20.1996C17 20.4118 16.9157 20.6153 16.7657 20.7653C16.6157 20.9153 16.4122 20.9996 16.2 20.9996H1.8C1.58783 20.9996 1.38434 20.9153 1.23431 20.7653C1.08429 20.6153 1 20.4118 1 20.1996V3.39961C1 3.18744 1.08429 2.98395 1.23431 2.83392C1.38434 2.6839 1.58783 2.59961 1.8 2.59961H5" fill="#3A7D44"/>
<path d="M13 2.59961H16.2C16.4122 2.59961 16.6157 2.6839 16.7657 2.83392C16.9157 2.98395 17 3.18744 17 3.39961V20.1996C17 20.4118 16.9157 20.6153 16.7657 20.7653C16.6157 20.9153 16.4122 20.9996 16.2 20.9996H1.8C1.58783 20.9996 1.38434 20.9153 1.23431 20.7653C1.08429 20.6153 1 20.4118 1 20.1996V3.39961C1 3.18744 1.08429 2.98395 1.23431 2.83392C1.38434 2.6839 1.58783 2.59961 1.8 2.59961H5" stroke="#3A7D44" stroke-width="1.5" stroke-linecap="round" stroke-linejoin="round"/>
<path d="M5.80005 13.7998H12.2" stroke="white" stroke-width="1.5" stroke-linecap="round" stroke-linejoin="round"/>
<path d="M5.80005 10.5996H12.2" stroke="white" stroke-width="1.5" stroke-linecap="round" stroke-linejoin="round"/>
<path d="M13 1H5V5H13V1Z" fill="white" stroke="#3A7D44" stroke-width="1.5" stroke-linecap="round" stroke-linejoin="round"/>
</svg>
