<svg width="19" height="22" viewBox="0 0 19 22" fill="none" xmlns="http://www.w3.org/2000/svg">
<path d="M13.5 2.59961H16.7C16.9122 2.59961 17.1157 2.6839 17.2657 2.83392C17.4157 2.98395 17.5 3.18744 17.5 3.39961V20.1996C17.5 20.4118 17.4157 20.6153 17.2657 20.7653C17.1157 20.9153 16.9122 20.9996 16.7 20.9996H2.3C2.08783 20.9996 1.88434 20.9153 1.73431 20.7653C1.58429 20.6153 1.5 20.4118 1.5 20.1996V3.39961C1.5 3.18744 1.58429 2.98395 1.73431 2.83392C1.88434 2.6839 2.08783 2.59961 2.3 2.59961H5.5" stroke="#9CA4AC" stroke-width="1.5" stroke-linecap="round" stroke-linejoin="round"/>
<path d="M6.30005 13.7998H12.7" stroke="#AA8349" stroke-width="1.5" stroke-linecap="round" stroke-linejoin="round"/>
<path d="M6.30005 10.5996H12.7" stroke="#AA8349" stroke-width="1.5" stroke-linecap="round" stroke-linejoin="round"/>
<path d="M13.5 1H5.5V5H13.5V1Z" stroke="#9CA4AC" stroke-width="1.5" stroke-linecap="round" stroke-linejoin="round"/>
</svg>
