<svg width="23" height="24" viewBox="0 0 23 24" fill="none" xmlns="http://www.w3.org/2000/svg">
<g clip-path="url(#clip0_1642_7793)">
<path d="M11.4747 7.61646C10.8633 7.61646 10.2578 7.73688 9.69297 7.97086C9.12809 8.20484 8.61484 8.54778 8.18251 8.98011C7.75017 9.41245 7.40723 9.9257 7.17325 10.4906C6.93927 11.0554 6.81885 11.6609 6.81885 12.2723C6.81885 12.8837 6.93927 13.4891 7.17325 14.054C7.40723 14.6189 7.75017 15.1321 8.18251 15.5644C8.61484 15.9968 9.12809 16.3397 9.69297 16.5737C10.2578 16.8077 10.8633 16.9281 11.4747 16.9281C12.7095 16.9281 13.8937 16.4376 14.7668 15.5644C15.64 14.6913 16.1305 13.5071 16.1305 12.2723C16.1305 11.0375 15.64 9.85325 14.7668 8.98011C13.8937 8.10698 12.7095 7.61646 11.4747 7.61646ZM8.25317 12.2723C8.25317 11.4179 8.59258 10.5985 9.19673 9.99434C9.80088 9.39019 10.6203 9.05078 11.4747 9.05078C12.3291 9.05078 13.1485 9.39019 13.7526 9.99434C14.3568 10.5985 14.6962 11.4179 14.6962 12.2723C14.6962 13.1267 14.3568 13.9461 13.7526 14.5502C13.1485 15.1544 12.3291 15.4938 11.4747 15.4938C10.6203 15.4938 9.80088 15.1544 9.19673 14.5502C8.59258 13.9461 8.25317 13.1267 8.25317 12.2723Z" fill="#A5AAB5"/>
<path d="M14.0507 2.72392C13.2948 0.156479 9.65448 0.156479 8.89859 2.72392L8.76376 3.18147C8.71097 3.36069 8.61875 3.52583 8.49384 3.66478C8.36894 3.80373 8.21453 3.91297 8.04192 3.98448C7.86932 4.056 7.6829 4.08799 7.49633 4.07809C7.30975 4.0682 7.12776 4.01669 6.96368 3.92732L6.54486 3.69783C4.19256 2.41841 1.62082 4.99159 2.90167 7.34245L3.12973 7.76127C3.21909 7.92535 3.27061 8.10735 3.2805 8.29392C3.29039 8.48049 3.25841 8.66691 3.18689 8.83952C3.11537 9.01212 3.00613 9.16654 2.86719 9.29144C2.72824 9.41634 2.5631 9.50857 2.38388 9.56135L1.92633 9.69618C-0.641115 10.4521 -0.641115 14.0924 1.92633 14.8483L2.38388 14.9831C2.5631 15.0359 2.72824 15.1281 2.86719 15.253C3.00613 15.3779 3.11537 15.5323 3.18689 15.7049C3.25841 15.8775 3.29039 16.064 3.2805 16.2505C3.27061 16.4371 3.21909 16.6191 3.12973 16.7832L2.90024 17.202C1.62082 19.5543 4.19256 22.1275 6.54486 20.8452L6.96368 20.6171C7.12776 20.5278 7.30975 20.4763 7.49633 20.4664C7.6829 20.4565 7.86932 20.4885 8.04192 20.56C8.21453 20.6315 8.36894 20.7407 8.49384 20.8797C8.61875 21.0186 8.71097 21.1838 8.76376 21.363L8.89859 21.8205C9.65448 24.388 13.2948 24.388 14.0507 21.8205L14.1855 21.363C14.2383 21.1838 14.3305 21.0186 14.4554 20.8797C14.5803 20.7407 14.7347 20.6315 14.9073 20.56C15.08 20.4885 15.2664 20.4565 15.4529 20.4664C15.6395 20.4763 15.8215 20.5278 15.9856 20.6171L16.4044 20.8466C18.7567 22.1275 21.3299 19.5529 20.0476 17.202L19.8195 16.7832C19.7302 16.6191 19.6787 16.4371 19.6688 16.2505C19.6589 16.064 19.6909 15.8775 19.7624 15.7049C19.8339 15.5323 19.9431 15.3779 20.0821 15.253C20.221 15.1281 20.3862 15.0359 20.5654 14.9831L21.0229 14.8483C23.5904 14.0924 23.5904 10.4521 21.0229 9.69618L20.5654 9.56135C20.3862 9.50857 20.221 9.41634 20.0821 9.29144C19.9431 9.16654 19.8339 9.01212 19.7624 8.83952C19.6909 8.66691 19.6589 8.48049 19.6688 8.29392C19.6787 8.10735 19.7302 7.92535 19.8195 7.76127L20.049 7.34245C21.3299 4.99016 18.7553 2.41841 16.4044 3.69926L15.9856 3.92732C15.8215 4.01669 15.6395 4.0682 15.4529 4.07809C15.2664 4.08799 15.08 4.056 14.9073 3.98448C14.7347 3.91297 14.5803 3.80373 14.4554 3.66478C14.3305 3.52583 14.2383 3.36069 14.1855 3.18147L14.0507 2.72392ZM10.2741 3.12984C10.627 1.93217 12.3223 1.93217 12.6752 3.12984L12.81 3.58739C12.9233 3.97191 13.1213 4.32619 13.3894 4.62426C13.6574 4.92233 13.9888 5.15663 14.3592 5.30998C14.7296 5.46334 15.1296 5.53186 15.5299 5.51052C15.9302 5.48918 16.3207 5.37852 16.6726 5.18666L17.09 4.95717C18.1858 4.36192 19.3849 5.55958 18.7883 6.65684L18.5602 7.07567C18.3686 7.42769 18.2583 7.81811 18.2371 8.21833C18.216 8.61855 18.2847 9.01842 18.4382 9.38864C18.5917 9.75886 18.8261 10.0901 19.1241 10.3579C19.4222 10.6258 19.7765 10.8236 20.1609 10.9369L20.617 11.0717C21.8147 11.4245 21.8147 13.1199 20.617 13.4728L20.1595 13.6076C19.775 13.7209 19.4207 13.9189 19.1226 14.1869C18.8245 14.455 18.5902 14.7864 18.4369 15.1568C18.2835 15.5272 18.215 15.9272 18.2364 16.3275C18.2577 16.7278 18.3683 17.1182 18.5602 17.4702L18.7897 17.8876C19.3849 18.9834 18.1873 20.1825 17.09 19.5859L16.6726 19.3578C16.3206 19.166 15.93 19.0554 15.5296 19.0341C15.1292 19.0129 14.7292 19.0815 14.3588 19.235C13.9883 19.3885 13.657 19.623 13.389 19.9212C13.121 20.2194 12.9232 20.5739 12.81 20.9585L12.6752 21.4146C12.3223 22.6123 10.627 22.6123 10.2741 21.4146L10.1393 20.9571C10.0259 20.5728 9.82796 20.2187 9.56 19.9207C9.29204 19.6228 8.96082 19.3886 8.59062 19.2353C8.22042 19.082 7.82061 19.0134 7.42047 19.0346C7.02033 19.0558 6.63 19.1662 6.27807 19.3578L5.85925 19.5873C4.76343 20.1825 3.56433 18.9849 4.16101 17.8876L4.38907 17.4702C4.5812 17.1182 4.69207 16.7276 4.71355 16.3271C4.73503 15.9266 4.66657 15.5264 4.5132 15.1559C4.35983 14.7853 4.12543 14.4538 3.82721 14.1856C3.52899 13.9174 3.17452 13.7194 2.78979 13.6062L2.33224 13.4713C1.13458 13.1185 1.13458 11.4231 2.33224 11.0703L2.78979 10.9354C3.17391 10.822 3.52781 10.6241 3.82558 10.3562C4.12335 10.0884 4.35746 9.75732 4.51077 9.38731C4.66409 9.01729 4.73273 8.61767 4.71167 8.21771C4.69061 7.81774 4.58039 7.42754 4.38907 7.07567L4.15957 6.65684C3.56433 5.56102 4.76199 4.36192 5.85925 4.9586L6.27807 5.18666C6.63 5.37825 7.02033 5.48869 7.42047 5.50989C7.82061 5.53109 8.22042 5.46251 8.59062 5.30918C8.96082 5.15584 9.29204 4.92164 9.56 4.62372C9.82796 4.3258 10.0259 3.97171 10.1393 3.58739L10.2741 3.12984Z" fill="#A5AAB5"/>
</g>
<defs>
<clipPath id="clip0_1642_7793">
<rect width="22.9492" height="22.9492" fill="white" transform="translate(0 0.797607)"/>
</clipPath>
</defs>
</svg>
