<svg width="18" height="19" viewBox="0 0 18 19" fill="none" xmlns="http://www.w3.org/2000/svg">
<path fill-rule="evenodd" clip-rule="evenodd" d="M8.92219 13.9247C11.605 13.9247 14.0336 12.3532 16.2079 9.21038C14.0336 6.06752 11.605 4.49609 8.92219 4.49609C6.23933 4.49609 3.81076 6.06752 1.63647 9.21038C3.81076 12.3532 6.23933 13.9247 8.92219 13.9247Z" stroke="#2A2A2A" stroke-opacity="0.6" stroke-width="0.772727" stroke-linecap="round" stroke-linejoin="round"/>
<path fill-rule="evenodd" clip-rule="evenodd" d="M8.92212 6.20996C9.08041 6.20996 9.23555 6.22196 9.38755 6.24596C9.32377 6.58804 9.34426 6.9405 9.44725 7.27288C9.55023 7.60527 9.73261 7.90757 9.97862 8.15366C10.2246 8.39976 10.5269 8.58224 10.8592 8.68534C11.1916 8.78844 11.544 8.80905 11.8861 8.74539C11.9101 8.89625 11.9221 9.0511 11.9221 9.20996C11.9221 9.80331 11.7462 10.3833 11.4165 10.8767C11.0869 11.37 10.6183 11.7545 10.0702 11.9816C9.52199 12.2087 8.91879 12.2681 8.33685 12.1523C7.75491 12.0366 7.22036 11.7508 6.8008 11.3313C6.38124 10.9117 6.09552 10.3772 5.97976 9.79523C5.86401 9.21329 5.92342 8.61009 6.15048 8.06191C6.37754 7.51373 6.76206 7.0452 7.25541 6.71555C7.74876 6.38591 8.32878 6.20996 8.92212 6.20996Z" stroke="#2A2A2A" stroke-opacity="0.6" stroke-width="0.772727" stroke-linecap="round" stroke-linejoin="round"/>
</svg>
