<svg width="33" height="34" viewBox="0 0 33 34" fill="none" xmlns="http://www.w3.org/2000/svg">
<path d="M16.6947 15.6172C16.6716 15.5865 16.642 15.5616 16.6083 15.5445C16.5746 15.5274 16.5376 15.5186 16.5 15.5186C16.4625 15.5186 16.4255 15.5274 16.3918 15.5445C16.358 15.5616 16.3285 15.5865 16.3054 15.6172L12.8447 20.1707C12.8161 20.2086 12.7984 20.2541 12.7936 20.3019C12.7887 20.3498 12.7969 20.3981 12.8172 20.4414C12.8376 20.4846 12.8692 20.521 12.9084 20.5465C12.9477 20.5719 12.9931 20.5854 13.0393 20.5853H15.3228V28.3748C15.3228 28.5162 15.434 28.6319 15.57 28.6319H17.4239C17.5599 28.6319 17.6711 28.5162 17.6711 28.3748V20.5885H19.9607C20.1677 20.5885 20.2821 20.341 20.1554 20.1739L16.6947 15.6172Z" fill="#619451"/>
<path d="M25.7512 12.6511C24.336 8.76919 20.7301 6.00879 16.5062 6.00879C12.2823 6.00879 8.67636 8.76597 7.26118 12.6479C4.61314 13.3709 2.65723 15.8807 2.65723 18.8628C2.65723 22.4137 5.42269 25.2898 8.83395 25.2898H10.073C10.209 25.2898 10.3202 25.1741 10.3202 25.0327V23.1046C10.3202 22.9632 10.209 22.8475 10.073 22.8475H8.83395C7.79265 22.8475 6.81315 22.4169 6.08393 21.636C5.3578 20.8584 4.97157 19.8108 5.00555 18.7246C5.03336 17.8762 5.31145 17.0793 5.81511 16.4077C6.33112 15.7232 7.05416 15.2251 7.85754 15.0034L9.02861 14.6852L9.45811 13.5091C9.72384 12.7764 10.0946 12.0919 10.5612 11.4717C11.0218 10.857 11.5674 10.3166 12.1803 9.8682C13.4503 8.9395 14.9458 8.44784 16.5062 8.44784C18.0666 8.44784 19.5621 8.9395 20.832 9.8682C21.4469 10.3181 21.9908 10.858 22.4512 11.4717C22.9177 12.0919 23.2885 12.7796 23.5543 13.5091L23.9807 14.682L25.1486 15.0034C26.8234 15.4725 27.9944 17.0568 27.9944 18.8628C27.9944 19.9265 27.5958 20.9291 26.8728 21.681C26.5182 22.052 26.0964 22.3461 25.6318 22.5463C25.1672 22.7465 24.669 22.8489 24.1661 22.8475H22.927C22.791 22.8475 22.6798 22.9632 22.6798 23.1046V25.0327C22.6798 25.1741 22.791 25.2898 22.927 25.2898H24.1661C27.5773 25.2898 30.3428 22.4137 30.3428 18.8628C30.3428 15.8839 28.393 13.3773 25.7512 12.6511Z" fill="#619451"/>
</svg>
