<svg width="17" height="13" viewBox="0 0 17 13" fill="none" xmlns="http://www.w3.org/2000/svg">
<path d="M2.16666 12.8332C1.73124 12.8332 1.35863 12.6783 1.04883 12.3685C0.739023 12.0587 0.583856 11.6858 0.583328 11.2498V8.87484H7.70833C8.14374 8.87484 8.51662 8.71993 8.82695 8.41013C9.13729 8.10032 9.29219 7.72745 9.29166 7.2915V0.166504H14.8333C15.2687 0.166504 15.6416 0.32167 15.952 0.632004C16.2623 0.942337 16.4172 1.31495 16.4167 1.74984V11.2498C16.4167 11.6853 16.2618 12.0581 15.952 12.3685C15.6421 12.6788 15.2693 12.8337 14.8333 12.8332H2.16666ZM0.583328 8.08317V3.33317C0.583328 2.89775 0.738495 2.52514 1.04883 2.21534C1.35916 1.90553 1.73177 1.75036 2.16666 1.74984H6.91666L0.583328 8.08317ZM3.61145 7.2915L7.70833 3.19463V7.2915H3.61145Z" fill="#FCFCFC"/>
</svg>
